[center][img]http://www.leetleech.org/images/31575167398278436326.jpg[/img]



:::::::::::::Enjoy:Another:Release:From:T0XiCiNK::::::::::::::



File:: Big.Mommas.Like.Father.Like.Son.2011.R5.AC3.XViD-T0XiCiNK



Video Source:: ELEKTRI4KA

Audio Source:: Own

Language::English

IMDB:: http://www.imdb.com/title/tt1464174/



FBI agent Malcolm Turner and his stepson Trent go undercover at

an all-girls performing arts school after Trent witnesses a murder.



Specs::



General



Format                           : AVI

Format/Info                      : Audio Video Interleave

File size                        : 1.41 GiB

Duration                         : 1h 42mn

Overall bit rate                 : 1 965 Kbps

Writing application              : VirtualDubMod 1.5.10.2 (build 2540/release)

Writing library                  : VirtualDubMod build 2540/release



Video

ID                               : 0

Format                           : MPEG-4 Visual

Format profile                   : Advanced Simple@L5

Format settings, BVOP            : Yes

Format settings, QPel            : No

Format settings, GMC             : No warppoints

Format settings, Matrix          : Default (H.263)

Muxing mode                      : Packed bitstream

Codec ID                         : XVID

Codec ID/Hint                    : XviD

Duration                         : 1h 42mn

Bit rate                         : 1 507 Kbps

Width                            : 720 pixels

Height                           : 304 pixels

Display aspect ratio             : 2.35:1

Frame rate                       : 25.000 fps

Color space                      : YUV

Chroma subsampling               : 4:2:0

Bit depth                        : 8 bits

Scan type                        : Progressive

Bits/(Pixel*Frame)               : 0.275

Stream size                      : 1.08 GiB (77%)

Writing library                  : XviD 1.2.1 (UTC 2008-12-04)



Audio

ID                               : 1

Format                           : AC-3

Format/Info                      : Audio Coding 3

Mode extension                   : CM (complete main)

Codec ID                         : 2000

Duration                         : 1h 42mn

Bit rate mode                    : Constant

Bit rate                         : 448 Kbps

Channel(s)                       : 6 channels

Channel positions                : Front: L C R, Side: L R, LFE

Sampling rate                    : 48.0 KHz

Bit depth                        : 16 bits

Stream size                      : 330 MiB (23%)

Alignment                        : Split accross interleaves

Interleave, duration             : 40 ms (1.00 video frame)

Interleave, preload duration     : 500 ms





NOTES:: Presenting first R5 of Big Mommas: Like Father Like Son. Enjoy.





::Why Complain? Whats Free Is Free::



::We are always looking for friends with unreleased DVD's, Screeners, R5's, Audio, Cams, Silvers,

...and any other good sources you may have to offer -

..contact us: t0xicreleases@hushmail.com or digital.ink@live.com



::::::::::::::::::::::::::::::::::::   Respect To   :::::::::::::::::::::::::::::::::::::

::FLAWL3SS,Rx,Hive-CM8,Tranz,Vik,OneTwo,Joey,bob,Unevano,SANTi & our friends on utn and PA::

                      "and to all of you who support us, Thank-You"

 
http://www.leetleech.org/images/94785351761707588308.png 
http://www.leetleech.org/images/24944654676618551688.png 
http://www.leetleech.org/images/06042123732686575106.png

[/center]